# xmcd
#
# Track frame offsets:
# 150
# 17592
# 35140
# 57180
# 79175
# 95863
# 110455
# 130094
# 146231
# 164945
# 182665
#
# Disc length: 2641 seconds
#
# Revision: 0
# Processed by: cddbd v1.4PL0 Copyright (c) Steve Scherf et al.
# Submitted via: Audion 3.0.2 (http://www.panic.com/audion/)
#
DISCID=a00a4f0b
DTITLE=sdfdf - Dixie Chicks
DYEAR=1900
DGENRE=
TTITLE0=dfdf
TTITLE1=hghjg
TTITLE2=jhgjhg
TTITLE3=jhghjg
TTITLE4=jhgjkhg
TTITLE5=jhgjhg
TTITLE6=jghjhg
TTITLE7=jghjhg
TTITLE8=jhgjkhgkjhg
TTITLE9=kjhgkjhgjh
TTITLE10=kjhgkjhgjhg
EXTD=
EXTT0=
EXTT1=
EXTT2=
EXTT3=
EXTT4=
EXTT5=
EXTT6=
EXTT7=
EXTT8=
EXTT9=
EXTT10=
PLAYORDER=
